<?xml version="1.0" encoding="iso-8859-1"?>
<!-- Uploaded to: SVG Repo, www.svgrepo.com, Generator: SVG Repo Mixer Tools -->
<svg height="800px" width="800px" version="1.1" id="Layer_1" xmlns="http://www.w3.org/2000/svg" xmlns:xlink="http://www.w3.org/1999/xlink" 
	 viewBox="0 0 503.815 503.815" xml:space="preserve">
<g transform="translate(0 1)">
	<path style="fill:#7EE1E6;" d="M488.622,433.347c11.947,6.827,16.213,23.04,9.387,34.987c-6.827,11.947-23.04,16.213-34.987,9.387
		l-106.667-64.853l22.187,46.933c6.827,11.947,4.267,28.16-8.533,34.987c-11.947,6.827-27.307,1.707-35.84-9.387l-46.08-72.533
		l-8.533,59.733c0,14.507-11.093,25.6-25.6,25.6s-25.6-11.093-25.6-25.6l-8.533-59.733l-46.08,72.533
		c-8.533,11.947-23.893,16.213-36.693,9.387c-11.947-6.827-14.507-23.04-7.68-34.987l21.333-46.08l-105.813,64
		c-11.947,6.827-28.16,2.56-34.987-9.387c-6.827-11.947-2.56-28.16,9.387-34.987L66.222,395.8c0,0,25.6-17.067,25.6-42.667v-153.6
		c0-49.493,22.187-93.013,56.32-122.88c10.24-9.387,24.747-17.92,24.747-17.92c23.893-13.653,51.2-21.333,81.067-21.333
		s57.173,7.68,81.067,21.333c0,0,11.093,6.827,24.747,17.92c34.133,29.867,56.32,73.387,56.32,122.88v153.6
		c0,25.6,25.6,42.667,25.6,42.667L488.622,433.347z M283.822,147.48c-8.533-5.12-18.773-7.68-29.867-7.68s-21.333,2.56-29.867,7.68
		c-9.387,5.12-17.067,12.8-22.187,22.187c-5.12,8.533-7.68,18.773-7.68,29.867c0,33.28,26.453,59.733,59.733,59.733
		s59.733-26.453,59.733-59.733c0-11.093-2.56-21.333-7.68-29.867C300.888,160.28,293.208,152.6,283.822,147.48L283.822,147.48z"/>
	<g>
		<path style="fill:#E4F2DE;" d="M416.088,3.267c9.387,0,17.067,7.68,17.067,17.067S425.475,37.4,416.088,37.4
			c-5.12,0-9.387-1.707-11.947-5.12c-3.413-3.413-5.12-7.68-5.12-11.947C399.022,10.947,406.702,3.267,416.088,3.267z M91.822,3.267
			c9.387,0,17.067,7.68,17.067,17.067c0,4.267-1.707,8.533-5.12,11.947c-3.413,3.413-7.68,5.12-11.947,5.12
			c-9.387,0-17.067-7.68-17.067-17.067S82.435,3.267,91.822,3.267z"/>
		<path style="fill:#E4F2DE;" d="M306.008,169.667c5.12,8.533,7.68,18.773,7.68,29.867c0,33.28-26.453,59.733-59.733,59.733
			s-59.733-26.453-59.733-59.733c0-11.093,2.56-21.333,7.68-29.867c5.12-9.387,12.8-17.067,22.187-22.187
			c8.533-5.12,18.773-7.68,29.867-7.68s21.333,2.56,29.867,7.68C293.208,152.6,300.888,160.28,306.008,169.667"/>
	</g>
	<path style="fill:#AAB1BA;" d="M253.955,191c4.267,0,8.533,4.267,8.533,8.533c0,4.267-4.267,8.533-8.533,8.533
		c-5.12,0-8.533-4.267-8.533-8.533C245.422,195.267,249.688,191,253.955,191"/>
</g>
<path style="fill:#51565F;" d="M358.062,503.467c-10.24,0-20.48-5.12-27.307-14.507l-40.107-63.147l-6.827,48.64
	c0,16.213-13.653,29.013-29.867,29.013s-29.867-13.653-29.867-29.867l-6.827-47.787l-40.107,63.147
	c-10.24,14.507-29.013,18.773-42.667,11.093c-5.973-3.413-11.093-9.387-12.8-17.067c-2.56-7.68-0.853-17.067,3.413-23.893
	l15.36-33.28l-93.867,57.173c-14.507,8.533-32.427,3.413-40.96-11.093c-4.267-6.827-5.12-15.36-2.56-23.04
	c2.56-7.68,6.827-14.507,13.653-17.92l46.933-37.547c0.853,0,23.893-16.213,23.893-39.253v-153.6
	c0-46.933,19.627-91.307,54.613-122.88l-38.4-38.4c-3.413,2.56-7.68,3.413-11.947,3.413c-11.947,0-21.333-9.387-21.333-21.333
	S79.875,0,91.822,0s21.333,9.387,21.333,21.333c0,4.267-1.707,8.533-3.413,11.947l41.813,41.813
	c0.853,0.853,1.707,1.707,0.853,3.413c0,0.853-0.853,2.56-1.707,3.413c-34.987,29.867-54.613,73.387-54.613,119.467v153.6
	c0,27.307-26.453,45.227-27.307,46.08l-46.933,37.547c-5.12,3.413-9.387,7.68-10.24,13.653c-0.853,5.973-0.853,11.093,2.56,16.213
	c5.973,10.24,18.773,13.653,29.013,7.68l105.813-64c1.707-0.853,3.413-0.853,5.12,0.853c1.707,0.853,1.707,3.413,0.853,5.12
	l-22.187,46.08c-3.413,5.973-4.267,11.947-2.56,17.92c1.707,5.12,4.267,9.387,8.533,11.947c10.24,5.973,23.893,1.707,30.72-8.533
	l46.08-72.533c0.853-1.707,2.56-2.56,4.267-1.707c1.707,0,3.413,1.707,3.413,3.413l8.533,59.733
	c0,11.947,9.387,22.187,21.333,22.187s21.333-9.387,21.333-21.333l8.533-60.587c0-1.707,1.707-3.413,3.413-3.413
	s3.413,0,4.267,1.707l46.08,72.533c7.68,10.24,20.48,13.653,29.867,8.533c5.12-2.56,8.533-7.68,9.387-12.8
	c0.853-5.12,0-11.947-2.56-16.213l-22.187-46.933c-0.853-1.707,0-3.413,0.853-5.12c1.707-0.853,3.413-1.707,5.12-0.853
	l106.667,64.853c10.24,5.973,23.04,2.56,29.013-7.68c5.973-10.24,2.56-23.04-7.68-29.013l-47.787-37.547
	c-0.853-0.853-27.307-18.773-27.307-46.08v-153.6c0-46.08-19.627-89.6-54.613-119.467c-0.853-0.853-1.707-1.707-1.707-3.413
	c0-0.853,0-2.56,0.853-3.413l40.96-41.813c-2.56-3.413-3.413-7.68-3.413-11.947c0-11.947,9.387-21.333,21.333-21.333
	c11.947,0,21.333,9.387,21.333,21.333s-9.387,21.333-21.333,21.333c-4.267,0-8.533-1.707-11.947-3.413l-38.4,38.4
	c34.133,31.573,53.76,75.947,53.76,122.88v153.6c0,23.04,23.893,39.253,23.893,39.253l46.933,37.547
	c13.653,7.68,18.773,26.453,10.24,40.107c-8.533,13.653-26.453,18.773-40.96,11.093l-94.72-57.173l16.213,34.133
	c4.267,6.827,5.12,14.507,3.413,22.187c-1.707,7.68-6.827,14.507-13.653,18.773C368.302,502.613,363.182,503.467,358.062,503.467z
	 M407.555,30.72c2.56,1.707,5.12,3.413,8.533,3.413c6.827,0,12.8-5.973,12.8-12.8s-5.973-12.8-12.8-12.8
	c-6.827,0-12.8,5.973-12.8,12.8c0,3.413,0.853,5.973,3.413,8.533C406.702,29.867,406.702,29.867,407.555,30.72L407.555,30.72z
	 M91.822,8.533c-6.827,0-12.8,5.973-12.8,12.8s5.973,12.8,12.8,12.8c3.413,0,5.973-0.853,8.533-2.56c0,0,0-0.853,0.853-0.853
	l0.853-0.853c1.707-2.56,2.56-5.12,2.56-8.533C104.622,14.507,98.648,8.533,91.822,8.533z M253.955,341.333
	c-52.053,0-93.867-24.747-96.427-26.453c-1.707-0.853-2.56-3.413-1.707-5.973c0.853-1.707,4.267-2.56,5.973-1.707
	c0,0,42.667,24.747,91.307,24.747c49.493,0,91.307-24.747,91.307-24.747c1.707-0.853,4.267-0.853,5.973,1.707
	c0.853,1.707,0.853,4.267-1.707,5.973C347.822,316.587,306.008,341.333,253.955,341.333z M253.955,264.533
	c-34.987,0-64-29.013-64-64c0-10.24,2.56-19.627,6.827-28.16l-11.093-6.827c-1.707-0.853-2.56-2.56-2.56-3.413
	c0-0.853,0-1.707,0.853-2.56c0.853-1.707,3.413-2.56,5.973-1.707l11.093,6.827c4.267-6.827,10.24-12.8,17.92-17.92l-6.827-11.093
	c0-0.853-0.853-1.707-0.853-2.56c0-1.707,0.853-2.56,2.56-3.413c1.707-0.853,4.267-0.853,5.973,1.707l6.827,11.093
	c7.68-3.413,15.36-5.973,23.893-6.827v-11.947c0-2.56,1.707-4.267,4.267-4.267s4.267,1.707,4.267,4.267v12.8
	c8.533,0.853,17.067,2.56,23.893,6.827l6.827-11.093c0.853-1.707,3.413-2.56,5.973-1.707c1.707,0.853,2.56,2.56,2.56,3.413
	c0,0.853,0,1.707-0.853,2.56l-6.827,11.093c6.827,4.267,12.8,10.24,17.92,17.92l11.093-6.827c1.707-0.853,4.267-0.853,5.973,1.707
	c0,0.853,0.853,1.707,0.853,2.56c0,1.707-0.853,2.56-2.56,3.413l-11.093,6.827c4.267,8.533,6.827,17.92,6.827,28.16
	C317.955,235.52,288.942,264.533,253.955,264.533z M253.955,145.067c-30.72,0-55.467,24.747-55.467,55.467S223.235,256,253.955,256
	s55.467-24.747,55.467-55.467S284.675,145.067,253.955,145.067z M253.955,213.333c-6.827,0-12.8-5.973-12.8-12.8
	c0-6.827,5.973-12.8,12.8-12.8s12.8,5.973,12.8,12.8C266.755,207.36,260.782,213.333,253.955,213.333z M253.955,196.267
	c-2.56,0-4.267,1.707-4.267,4.267c0,2.56,1.707,4.267,4.267,4.267s4.267-1.707,4.267-4.267
	C258.222,197.973,256.515,196.267,253.955,196.267z M335.022,64c-0.853,0-1.707,0-2.56-0.853
	c-23.893-13.653-51.2-21.333-78.507-21.333s-54.613,7.68-78.507,21.333C173.742,64,171.182,64,169.475,61.44
	c-0.853-1.707-0.853-4.267,1.707-5.973c24.747-14.507,53.76-22.187,82.773-22.187s58.027,7.68,82.773,22.187
	c1.707,0.853,2.56,3.413,1.707,5.973C337.582,63.147,336.728,64,335.022,64z"/>
</svg>